PathFileType	4	(X/Y/Z)	C:\Users\Basilio\Documents\Thesis Gigler\squatting_fais\c3dfiles\076\SLS_front_pre3\markers_experimental.trc
DataRate	CameraRate	NumFrames	NumMarkers	Units	OrigDataRate	OrigDataStartFrame	OrigNumFrames
200.000000	200.000000	4	61	mm	200.000000	1271	1453
Frame#	Time	FHD			LBHD			RBHD			C7			T10			CLAV			LSHO			LUUPA			LMUPA			LDUPA			LLEP			LMEP			LRAD			LUL			LRFIN			RSHO			RUPA1			RMUPA			RDUPA			RLEP			RMEP			RRAD			RUL			RUFIN			LASI			RASI			USACR			LSACR			RSACR			LTHI1			LTHI2			LTHI4			LLFC			LMFC			LTIB1			LTIB2			LTIB3			LTIB4			LLMAL			LMMAL			LHEE			LMT1			LMT2			LMT5			RTHI			RTHI2			RTHI3			RTHI4			RLFC			RMFC			RTIB1			RTIB2			RTIB3			RTIB4			RLMAL			RMMAL			RHEE			RMT1			RMT2			RMT5			LTHI3			
		X1	Y1	Z1	X2	Y2	Z2	X3	Y3	Z3	X4	Y4	Z4	X5	Y5	Z5	X6	Y6	Z6	X7	Y7	Z7	X8	Y8	Z8	X9	Y9	Z9	X10	Y10	Z10	X11	Y11	Z11	X12	Y12	Z12	X13	Y13	Z13	X14	Y14	Z14	X15	Y15	Z15	X16	Y16	Z16	X17	Y17	Z17	X18	Y18	Z18	X19	Y19	Z19	X20	Y20	Z20	X21	Y21	Z21	X22	Y22	Z22	X23	Y23	Z23	X24	Y24	Z24	X25	Y25	Z25	X26	Y26	Z26	X27	Y27	Z27	X28	Y28	Z28	X29	Y29	Z29	X30	Y30	Z30	X31	Y31	Z31	X32	Y32	Z32	X33	Y33	Z33	X34	Y34	Z34	X35	Y35	Z35	X36	Y36	Z36	X37	Y37	Z37	X38	Y38	Z38	X39	Y39	Z39	X40	Y40	Z40	X41	Y41	Z41	X42	Y42	Z42	X43	Y43	Z43	X44	Y44	Z44	X45	Y45	Z45	X46	Y46	Z46	X47	Y47	Z47	X48	Y48	Z48	X49	Y49	Z49	X50	Y50	Z50	X51	Y51	Z51	X52	Y52	Z52	X53	Y53	Z53	X54	Y54	Z54	X55	Y55	Z55	X56	Y56	Z56	X57	Y57	Z57	X58	Y58	Z58	X59	Y59	Z59	X60	Y60	Z60	X61	Y61	Z61	

1272	6.355	-275.1524047851563	1658.529907226563	-1017.863403320313	-403.2032470703126	1571.34619140625	-1116.53369140625	-393.0520324707032	1578.2509765625	-965.155700683594	-436.9352111816407	1448.51123046875	-1039.85498046875	-445.7561645507814	1132.771118164063	-1062.286376953125	-299.6105651855469	1382.338012695313	-1039.320678710938	-358.1910095214844	1395.136108398438	-1220.498168945313	-322.4071960449219	1192.445068359375	-1279.880493164063	-286.9898071289063	1172.795288085938	-1250.790893554688	-308.3619995117188	1124.948608398438	-1284.15625	-311.5926513671876	1067.026733398438	-1285.486938476563	-350.3029174804688	1048.703735351563	-1214.775268554688	-159.1269073486328	880.8708496093752	-1218.649780273438	-189.5294647216797	855.7390747070315	-1270.77685546875	-105.5025863647461	812.200866699219	-1224.425903320313	-368.9001159667969	1378.211669921875	-868.718200683594	-390.0506286621095	1177.121337890625	-799.627868652344	-344.8362121582032	1157.325439453125	-800.1341552734377	-379.7059326171876	1107.564819335938	-795.543151855469	-361.7381896972657	1045.604125976563	-793.4755859375002	-367.5514831542969	1033.380859375	-873.3142700195315	-230.8704376220704	837.6116943359377	-813.9348144531252	-280.7375793457032	825.2872314453127	-771.559997558594	-198.2243194580079	769.7286376953127	-785.8704833984377	-272.3648986816407	950.414001464844	-1148.1455078125	-283.6946105957032	988.3950805664065	-936.3088378906252	-447.6321411132814	1023.325744628906	-1054.190795898438	-450.7259521484376	990.9036254882815	-1078.230346679688	-459.6544189453126	996.7177734375002	-1022.288696289063	-346.6521911621094	787.4389648437502	-1194.357299804688	-321.3797607421876	707.2796630859376	-1183.63330078125	-354.0112609863282	657.8446655273439	-1166.999267578125	-361.0773315429688	500.670379638672	-1128.328491210938	-334.4913024902344	504.9837341308595	-1012.049438476563	-327.6265258789063	364.1441040039063	-1044.045532226563	-344.9542846679688	304.1981201171876	-1106.6982421875	-318.2301025390626	311.5564575195313	-1068.605590820313	-331.1921997070313	237.8882446289063	-1029.97265625	-383.1986694335938	106.1152877807617	-1071.5419921875	-358.8621826171876	123.4449081420899	-992.8386230468752	-441.4957580566407	96.17457580566409	-1024.37451171875	-239.8857727050782	51.22981643676759	-1004.926147460938	-233.5753479003907	48.94039535522462	-1043.588500976563	-257.5945129394532	43.33176803588868	-1094.044311523438	-200.2243652343751	798.2024536132815	-861.3496704101565	-133.8925323486328	797.7815551757815	-873.4721679687502	-119.2812423706055	825.806579589844	-888.6918945312502	-87.42163848876955	729.8658447265626	-887.195495605469	-42.28450393676759	691.5178222656251	-895.4304809570315	-36.43220520019532	695.9444580078126	-1011.86669921875	86.73652648925783	636.7218017578126	-920.6475830078127	107.7363052368164	534.2002563476564	-889.7443847656252	137.290771484375	567.2056884765626	-905.329040527344	178.6500701904297	547.0579223632814	-940.6414184570315	255.9761047363282	411.5911865234376	-905.4997558593752	248.0913696289063	433.9084777832032	-987.3714599609377	239.1322326660157	348.3150634765626	-942.5698242187502	377.1488647460938	494.9393310546876	-994.1220703125002	377.6997680664063	509.0311279296876	-947.4653930664065	381.6120300292969	480.7074584960939	-892.5607910156252	-271.9152526855469	708.2603759765626	-1171.843383789063	
1273	6.36	-274.9627075195313	1658.400634765625	-1017.792236328125	-403.0153198242189	1571.228881835938	-1116.57666015625	-392.9999389648439	1578.223022460938	-965.1473388671877	-436.8372192382814	1448.448364257813	-1039.882568359375	-445.6845092773439	1132.703857421875	-1062.358154296875	-299.5455932617188	1382.274780273438	-1039.258056640625	-357.8542480468751	1395.12939453125	-1220.475708007813	-322.3309020996094	1192.285766601563	-1279.732421875	-287.0407409667969	1172.642333984375	-1250.486938476563	-308.6867370605469	1124.729248046875	-1283.88232421875	-311.9081726074219	1066.815673828125	-1285.107055664063	-350.9370727539063	1048.608642578125	-1214.57470703125	-160.5236511230469	879.8022460937502	-1217.95947265625	-191.0759735107422	854.8606567382815	-1270.306518554688	-107.5775604248047	810.8585205078127	-1223.86474609375	-368.8857727050782	1378.102172851563	-868.6920166015627	-390.2684936523439	1177.023071289063	-799.6571044921877	-345.0481567382813	1157.217163085938	-800.1352539062502	-379.9944458007813	1107.477661132813	-795.5781860351565	-362.0947570800782	1045.528564453125	-793.5515747070315	-368.5372009277344	1032.739501953125	-874.0998535156252	-232.1036529541016	836.9807128906252	-813.7103271484377	-282.1475524902344	824.9060058593752	-771.3807373046877	-199.8999786376954	768.868835449219	-785.7024536132815	-272.2007446289063	950.4151611328127	-1148.248291015625	-283.6686706542969	988.217956542969	-936.3895263671877	-447.518524169922	1023.275451660156	-1054.271484375	-450.6329345703126	990.8305664062502	-1078.322631835938	-459.5532836914064	996.6408691406252	-1022.390747070313	-346.4705810546876	787.4107055664065	-1194.533325195313	-321.1699218750001	707.2578735351564	-1183.698486328125	-353.7976074218751	657.7861938476564	-1167.058959960938	-360.7750854492188	500.5705566406251	-1128.398193359375	-334.1867980957032	504.9202880859376	-1012.131103515625	-327.4723815917969	364.1239929199219	-1044.075439453125	-345.3955383300782	304.2833251953126	-1106.94140625	-318.0839538574219	311.4596557617188	-1068.495849609375	-330.7670593261719	237.6372833251954	-1029.79736328125	-383.1499938964844	106.1311798095703	-1071.494506835938	-358.9137268066407	123.3599014282227	-992.8023681640627	-441.2967224121095	96.13148498535159	-1024.29833984375	-239.8810119628907	51.18855667114259	-1004.914672851563	-233.603744506836	48.89855575561525	-1043.5888671875	-257.5500183105469	43.3364372253418	-1094.074829101563	-200.2971496582032	798.0312500000002	-861.4019165039065	-133.8576354980469	797.709899902344	-873.5106201171877	-119.2097625732422	825.6688232421877	-888.7759399414065	-87.46685791015626	729.7185668945314	-887.2554321289065	-42.26916885375977	691.3765869140626	-895.4284667968752	-36.44171905517579	695.8303833007814	-1011.830261230469	86.67544555664064	636.3246459960939	-920.6079711914065	107.5972442626953	533.9509887695314	-889.7153320312502	137.2017211914063	566.8660278320314	-905.2857666015627	178.5046997070313	546.6732788085939	-940.5742187500002	255.6605834960938	411.0049743652345	-905.4405517578127	247.8565521240235	433.2788696289064	-987.5786132812502	238.8371887207032	347.8259582519532	-942.5567016601565	376.9044799804688	494.4396057128907	-994.1887817382815	377.5845642089844	508.2630920410157	-947.4632568359377	381.3926086425782	480.0391540527345	-892.4350585937502	-272.6359863281251	707.5993041992189	-1170.404296875	
1274	6.365	-274.8067321777344	1658.186401367188	-1017.742492675781	-402.9749450683595	1571.236328125	-1116.597778320313	-392.9295349121095	1578.164306640625	-965.191589355469	-436.7355346679689	1448.349243164063	-1039.939697265625	-445.6566772460939	1132.691528320313	-1062.447143554688	-299.4300537109376	1382.259155273438	-1039.230712890625	-357.6303100585938	1395.043823242188	-1220.5166015625	-322.2346801757813	1192.084594726563	-1279.561889648438	-287.1794433593751	1172.447509765625	-1250.251586914063	-308.7923278808594	1124.529052734375	-1283.564086914063	-312.3361816406251	1066.716796875	-1284.830322265625	-350.9477233886719	1049.745727539063	-1214.119995117188	-161.9970703125	878.759948730469	-1217.352783203125	-192.5650329589844	854.0394287109377	-1269.866821289063	-109.3739318847657	809.4291992187502	-1223.014526367188	-368.8802795410157	1378.020629882813	-868.6964111328127	-390.4379882812501	1176.953369140625	-799.711120605469	-345.2535095214844	1157.095092773438	-800.1018676757815	-380.2805175781251	1107.3759765625	-795.6955566406252	-362.5409545898438	1045.421264648438	-793.687194824219	-368.9172973632813	1032.780517578125	-874.0504150390627	-233.4540405273438	836.257751464844	-813.2896118164065	-283.6590270996094	824.3786621093752	-771.258483886719	-201.6381378173829	767.9583740234376	-785.2082519531252	-271.9576416015626	950.4372558593752	-1148.336791992188	-283.6109924316407	988.019470214844	-936.3777465820315	-447.4067687988282	1023.220397949219	-1054.364990234375	-450.5300292968751	990.8040771484377	-1078.433715820313	-459.4919738769532	996.6087036132815	-1022.46533203125	-346.2726745605469	787.2883300781252	-1194.588989257813	-320.9136352539063	707.2097778320314	-1183.790649414063	-353.4173583984376	657.7315063476564	-1167.153564453125	-361.6908569335938	500.6913146972657	-1128.68505859375	-333.8805847167969	504.8936157226564	-1012.157775878906	-327.1706848144532	364.1127014160157	-1044.014038085938	-345.1957397460938	304.2973022460938	-1106.876953125	-317.9692382812501	311.4260253906251	-1068.477416992188	-330.9904479980469	237.8310089111329	-1029.836791992188	-383.1751708984376	106.1046524047852	-1071.483520507813	-358.9606018066407	123.3106765747071	-992.7401123046877	-441.2615356445314	96.13977813720706	-1024.259765625	-239.8855743408204	51.19319915771486	-1004.847351074219	-233.5970306396485	48.88855361938478	-1043.589233398438	-257.5736083984376	43.33896255493165	-1094.032958984375	-200.2589111328126	797.8890380859377	-861.4883422851565	-133.7865600585938	797.607849121094	-873.4826660156252	-119.1400604248047	825.553405761719	-888.7549438476565	-87.43308258056642	729.5895385742189	-887.2554321289065	-42.20562362670899	691.2299194335939	-895.452331542969	-36.37131118774415	695.7844238281251	-1011.851928710938	86.59744262695314	636.0302734375001	-920.6322021484377	107.3986434936524	533.5989379882814	-889.6750488281252	137.0792236328125	566.5411987304689	-905.3145141601565	178.2964782714844	546.2194824218751	-940.6228027343752	255.4271392822266	410.4675903320314	-905.4461059570315	247.2456359863282	432.6225585937501	-986.959899902344	238.3491516113282	347.4203796386719	-942.2601318359377	376.7248840332032	493.8762817382814	-994.1595458984377	377.4847106933594	507.8004150390626	-947.4807739257815	381.0970153808594	479.0176696777345	-892.5667724609377	-271.5779418945313	708.1122436523439	-1171.772338867188	
1275	6.37	-274.5960083007813	1658.06689453125	-1017.691711425781	-402.4644165039064	1571.673217773438	-1116.74072265625	-392.8726501464845	1578.105712890625	-965.167175292969	-436.662567138672	1448.31396484375	-1039.997924804688	-445.6059570312501	1132.63720703125	-1062.626586914063	-299.2757263183594	1382.129760742188	-1039.238525390625	-357.5046691894532	1395.018188476563	-1220.546630859375	-322.3114013671876	1191.921630859375	-1279.461303710938	-287.2839050292969	1172.166015625	-1250.003784179688	-308.8811340332032	1124.261108398438	-1283.312133789063	-312.7367858886719	1066.551391601563	-1284.574096679688	-351.4938049316407	1049.546020507813	-1213.923828125	-163.679183959961	877.5740966796877	-1216.762329101563	-194.1070709228516	853.2270507812502	-1269.524291992188	-111.298812866211	807.8879394531252	-1222.215454101563	-368.8634948730469	1377.981079101563	-868.6736450195315	-390.6374816894532	1176.835205078125	-799.7676391601565	-345.5098571777344	1156.931396484375	-800.1285400390627	-380.5471496582032	1107.291259765625	-795.8085937500002	-363.0208129882813	1045.359619140625	-793.8566894531252	-368.9411315917969	1032.84619140625	-874.2819824218752	-234.7310485839844	835.6162719726565	-813.0754394531252	-285.2066345214844	823.9536132812502	-771.2534179687502	-203.3203430175782	767.1658935546876	-784.8331298828127	-271.7793884277344	950.4305419921877	-1148.426513671875	-283.4445800781251	987.8973388671877	-936.4490966796877	-447.3747558593751	1023.189880371094	-1054.464477539063	-450.4132385253907	990.7239379882815	-1078.521362304688	-459.4088745117189	996.4584960937502	-1022.55908203125	-346.0692749023438	787.1867675781252	-1194.782592773438	-320.8005981445313	707.1625976562501	-1183.838256835938	-353.2337951660157	657.7426147460939	-1167.229248046875	-361.4122009277344	500.7066040039064	-1128.697998046875	-333.5732116699219	504.9209289550782	-1012.135070800781	-327.0527648925782	364.0348205566407	-1044.015747070313	-344.9667968750001	304.2659606933594	-1106.883911132813	-317.8355712890626	311.4597473144532	-1068.404907226563	-330.9129638671876	237.7837371826172	-1029.769409179688	-383.1457519531251	106.1276779174805	-1071.45263671875	-358.9644165039063	123.2768707275391	-992.7692871093752	-441.4595642089845	96.18156433105472	-1024.349609375	-239.8480529785157	51.20496749877931	-1004.817138671875	-233.5497589111329	48.89492416381837	-1043.5341796875	-257.5759582519532	43.34074020385743	-1094.0087890625	-200.2099761962891	797.7257080078127	-861.5291748046877	-133.6570129394532	797.4554443359377	-873.5124511718752	-119.0567169189453	825.3984375000002	-888.784606933594	-87.46728515625001	729.3208007812501	-887.2778320312502	-42.18994522094727	691.0537109375001	-895.4642333984377	-35.37236785888673	696.0181884765626	-1012.384643554688	86.47168731689455	635.6259765625001	-920.5729980468752	107.2547225952149	533.1760253906251	-889.6939086914065	136.9336853027344	566.2011718750001	-905.317565917969	178.0797271728516	545.6965332031251	-940.5864868164065	255.1506347656251	409.9924316406251	-905.3764648437502	246.7299194335938	432.1916809082032	-986.955505371094	237.806625366211	346.8989868164063	-942.228454589844	376.4717407226563	493.0060119628907	-993.929382324219	377.3262329101563	507.0218811035157	-947.5689697265627	380.9326782226563	478.5516662597657	-892.3530883789065	-271.4468383789063	708.1170654296876	-1171.89208984375	
